<?xml version="1.0" encoding="utf-8"?>
<!-- Generator: Adobe Illustrator 27.0.1, SVG Export Plug-In . SVG Version: 6.00 Build 0)  -->
<svg version="1.1" id="Layer_1" xmlns="http://www.w3.org/2000/svg" xmlns:xlink="http://www.w3.org/1999/xlink" x="0px" y="0px"
	 viewBox="0 0 128 128" style="enable-background:new 0 0 128 128;" xml:space="preserve">
<style type="text/css">
	.st0{fill:#7C7C7C;}
	.st1{fill:#505050;}
	.st2{fill:none;stroke:#FFFFFF;stroke-width:6;}
</style>
<g>
	<path class="st0" d="M66.7,0c28.9,0,43.4,0,52.4,9s9,23.4,9,52.4v5.4c0,28.9,0,43.4-9,52.4s-23.4,9-52.4,9h-5.4
		c-28.9,0-43.4,0-52.4-9S0,95.6,0,66.7v-5.4C0,32.4,0,17.9,9,9s23.4-9,52.4-9L66.7,0z"/>
	<path class="st1" d="M0.4,36C0,42.9,0,51.2,0,61.3v5.4c0,7.7,0,14.2,0.1,20C16.9,94.9,39.4,99.8,64,99.8s47.1-5,63.9-13.2
		c0.1-5.8,0.1-12.4,0.1-20v-5.4c0-10.1,0-18.4-0.4-25.5H0.4L0.4,36z"/>
	<circle class="st2" cx="89" cy="64.7" r="12.2"/>
	<path class="st2" d="M53.8,79.4L25.6,51.2 M53.8,51.2L25.6,79.4"/>
</g>
</svg>
